<?xml version="1.0" encoding="us-ascii" standalone="no"?><svg xmlns="http://www.w3.org/2000/svg" xmlns:xlink="http://www.w3.org/1999/xlink" contentStyleType="text/css" height="365.625px" preserveAspectRatio="none" style="width:664px;height:365px;background:#FFFFFF;" version="1.1" viewBox="0 0 664 365" width="664.0625px" zoomAndPan="magnify"><defs/><g><text fill="#000000" font-family="Tahoma" font-size="21.875" font-weight="bold" lengthAdjust="spacing" textLength="270.3125" x="186.06" y="37.5107">API Module Relationship</text><g id="elem_&lt;b&gt;api&lt;/b&gt;"><ellipse cx="180.3599" cy="89.2819" fill="#F1F1F1" rx="38.938" ry="20.6906" style="stroke:#181818;stroke-width:0.78125;"/><text fill="#000000" font-family="Tahoma" font-size="18.75" font-weight="bold" lengthAdjust="spacing" textLength="29.6875" x="165.5161" y="93.6002">api</text></g><g id="elem_cli-parser"><ellipse cx="80.3538" cy="169.5007" fill="#F1F1F1" rx="70.9788" ry="20.6906" style="stroke:#181818;stroke-width:0.78125;"/><text fill="#000000" font-family="Tahoma" font-size="18.75" lengthAdjust="spacing" textLength="75" x="42.8538" y="173.8189">cli-parser</text></g><g id="elem_currencies-list"><ellipse cx="138.1788" cy="252.3521" fill="#F1F1F1" rx="91.9288" ry="22.1358" style="stroke:#181818;stroke-width:0.78125;"/><text fill="#000000" font-family="Tahoma" font-size="18.75" lengthAdjust="spacing" textLength="114.0625" x="81.1475" y="256.6703">currencies-list</text></g><g id="elem_exchange-rates"><ellipse cx="344.4259" cy="252.3546" fill="#F1F1F1" rx="96.1603" ry="22.9821" style="stroke:#181818;stroke-width:0.78125;"/><text fill="#000000" font-family="Tahoma" font-size="18.75" lengthAdjust="spacing" textLength="125" x="281.9259" y="256.6728">exchange-rates</text></g><g id="elem_hbp-extractor"><ellipse cx="344.4293" cy="169.4991" fill="#F1F1F1" rx="91.3356" ry="22.0171" style="stroke:#181818;stroke-width:0.78125;"/><text fill="#000000" font-family="Tahoma" font-size="18.75" lengthAdjust="spacing" textLength="112.5" x="288.1793" y="173.8173">hbp-extractor</text></g><g id="elem_historical-prices"><ellipse cx="556.9194" cy="252.3502" fill="#F1F1F1" rx="98.0131" ry="23.3526" style="stroke:#181818;stroke-width:0.78125;"/><text fill="#000000" font-family="Tahoma" font-size="18.75" lengthAdjust="spacing" textLength="129.6875" x="492.0756" y="256.6684">historical-prices</text></g><g id="elem_http-wrapper"><ellipse cx="344.418" cy="334.8655" fill="#F1F1F1" rx="89.5743" ry="21.6649" style="stroke:#181818;stroke-width:0.78125;"/><text fill="#000000" font-family="Tahoma" font-size="18.75" lengthAdjust="spacing" textLength="107.8125" x="290.5118" y="339.1838">http-wrapper</text></g><g id="elem_rest-api"><ellipse cx="299.1132" cy="89.2819" fill="#F1F1F1" rx="61.0351" ry="20.6906" style="stroke:#181818;stroke-width:0.78125;"/><text fill="#000000" font-family="Tahoma" font-size="18.75" lengthAdjust="spacing" textLength="60.9375" x="268.6444" y="93.6002">rest-api</text></g><!--link <b>api</b> to cli-parser--><g id="link_&lt;b&gt;api&lt;/b&gt;_cli-parser"><path d="M168.3281,109.5913 C168.3281,135.4663 168.3281,176.8569 168.3281,176.8569 C168.3281,176.8569 168.8906,176.8569 156.8438,176.8569 " fill="none" id="&lt;b&gt;api&lt;/b&gt;-to-cli-parser" style="stroke:#000000;stroke-width:1.5625;"/><polygon fill="#000000" points="147.4688,176.8569,161.5313,183.1069,155.2813,176.8569,161.5313,170.6069,147.4688,176.8569" style="stroke:#000000;stroke-width:1.5625;"/></g><!--link <b>api</b> to currencies-list--><g id="link_&lt;b&gt;api&lt;/b&gt;_currencies-list"><path d="M185.3125,109.9351 C185.3125,141.6538 185.3125,192.5288 185.3125,223.5132 " fill="none" id="&lt;b&gt;api&lt;/b&gt;-to-currencies-list" style="stroke:#000000;stroke-width:1.5625;"/><polygon fill="#000000" points="185.3125,232.8882,191.5625,218.8257,185.3125,225.0757,179.0625,218.8257,185.3125,232.8882" style="stroke:#000000;stroke-width:1.5625;"/></g><!--link <b>api</b> to hbp-extractor--><g id="link_&lt;b&gt;api&lt;/b&gt;_hbp-extractor"><path d="M202.2969,107.0757 C202.2969,128.8413 202.2969,162.7944 202.2969,162.7944 C202.2969,162.7944 217.9844,162.7944 247.0625,162.7944 " fill="none" id="&lt;b&gt;api&lt;/b&gt;-to-hbp-extractor" style="stroke:#000000;stroke-width:1.5625;"/><polygon fill="#000000" points="256.4375,162.7944,242.375,156.5444,248.625,162.7944,242.375,169.0444,256.4375,162.7944" style="stroke:#000000;stroke-width:1.5625;"/></g><!--link <b>api</b> to rest-api--><g id="link_&lt;b&gt;api&lt;/b&gt;_rest-api"><path d="M219.8906,89.3569 C225.5625,89.3569 222.125,89.3569 228.0937,89.3569 " fill="none" id="&lt;b&gt;api&lt;/b&gt;-to-rest-api" style="stroke:#000000;stroke-width:1.5625;"/><polygon fill="#000000" points="237.4687,89.3569,223.4062,83.1069,229.6562,89.3569,223.4062,95.6069,237.4687,89.3569" style="stroke:#000000;stroke-width:1.5625;"/></g><!--link currencies-list to http-wrapper--><g id="link_currencies-list_http-wrapper"><path d="M138.1719,274.8413 C138.1719,299.6851 138.1719,336.2319 138.1719,336.2319 C138.1719,336.2319 189.5938,336.2319 245.1719,336.2319 " fill="none" id="currencies-list-to-http-wrapper" style="stroke:#000000;stroke-width:0.78125;"/><polygon fill="#000000" points="254.5469,336.2319,240.4844,329.9819,246.7344,336.2319,240.4844,342.4819,254.5469,336.2319" style="stroke:#000000;stroke-width:0.78125;"/></g><!--link exchange-rates to http-wrapper--><g id="link_exchange-rates_http-wrapper"><path d="M344.4219,275.7944 C344.4219,287.4194 344.4219,291.9976 344.4219,303.4351 " fill="none" id="exchange-rates-to-http-wrapper" style="stroke:#000000;stroke-width:0.78125;"/><polygon fill="#000000" points="344.4219,312.8101,350.6719,298.7476,344.4219,304.9976,338.1719,298.7476,344.4219,312.8101" style="stroke:#000000;stroke-width:0.78125;"/></g><!--link hbp-extractor to exchange-rates--><g id="link_hbp-extractor_exchange-rates"><path d="M344.4219,192.1382 C344.4219,203.6382 344.4219,208.2163 344.4219,219.7944 " fill="none" id="hbp-extractor-to-exchange-rates" style="stroke:#000000;stroke-width:0.78125;"/><polygon fill="#000000" points="344.4219,229.1694,350.6719,215.1069,344.4219,221.3569,338.1719,215.1069,344.4219,229.1694" style="stroke:#000000;stroke-width:0.78125;"/></g><!--link hbp-extractor to historical-prices--><g id="link_hbp-extractor_historical-prices"><path d="M436.3906,170.6069 C493.8125,170.6069 556.9219,170.6069 556.9219,170.6069 C556.9219,170.6069 556.9219,194.7788 556.9219,218.9038 " fill="none" id="hbp-extractor-to-historical-prices" style="stroke:#000000;stroke-width:0.78125;"/><polygon fill="#000000" points="556.9219,228.2788,563.1719,214.2163,556.9219,220.4663,550.6719,214.2163,556.9219,228.2788" style="stroke:#000000;stroke-width:0.78125;"/></g><!--link historical-prices to http-wrapper--><g id="link_historical-prices_http-wrapper"><path d="M556.9219,276.1694 C556.9219,300.9663 556.9219,336.2319 556.9219,336.2319 C556.9219,336.2319 501.8281,336.2319 443.9063,336.2319 " fill="none" id="historical-prices-to-http-wrapper" style="stroke:#000000;stroke-width:0.78125;"/><polygon fill="#000000" points="434.5313,336.2319,448.5938,342.4819,442.3438,336.2319,448.5938,329.9819,434.5313,336.2319" style="stroke:#000000;stroke-width:0.78125;"/></g><!--SRC=[XLB1ZjCm4BtxA-R6xY7GL2mIqb9fjH8I1n22tX27YJEjhJeUQpoX1SI_ux1GaZJQFILvyzwRbsVdWuy91Ji8Ff9-JmGiwjYOR34GT7Y2-lLw1KVVgZFA2PIXOLNkeFL2LZt7mZxxH6ufKu9wFG85us40roz7OCUHhHFk25Hw6asomvQFFkvXXo6F9otji0_wbgD-m2BSekCEbmcV_G-QnU0-jlSiaGHUZKN9Gtsp6Y4emiTx3YpG1BI7-MZhl3r4oXbMpsz6mrIukAUjrq1tmUzZHr4Xq4wDUGRy3SE8t6Uoc0b-6YYLIaiojVqrQ8QACUx3k8KpzhZKSfSubW0ZwHbRbDQ3K8VmSFVn7RpdjY-ldoZWSCpP-MJCrMspmUHlNpIRQtDbWw-ASoOPFdeHYjPJheBFMX0wMLUIKYMeb0lWcbJHIGMjyY1nXSVYosMhKdayS5HJTHHCwO-hKDQgRBmsq-LGLL_qN_GtzTSDJDCyGRt8-ZX_7dp2dfF_HxxOKwm7j-alpcfQv4m3F52UgFUlprB55zZIpjy0]--></g></svg>