<?xml version="1.0" encoding="us-ascii" standalone="no"?><svg xmlns="http://www.w3.org/2000/svg" xmlns:xlink="http://www.w3.org/1999/xlink" contentStyleType="text/css" height="422px" preserveAspectRatio="none" style="width:860px;height:422px;background:#FFFFFF;" version="1.1" viewBox="0 0 860 422" width="860px" zoomAndPan="magnify"><defs/><g><text fill="#000000" font-family="sans-serif" font-size="14" font-weight="bold" lengthAdjust="spacing" textLength="249" x="304.5" y="28.5352">API Workflow - Sequence Diagram</text><rect fill="#FFFFFF" height="87.9316" style="stroke:#181818;stroke-width:1.0;" width="10" x="346" y="105.2871"/><rect fill="#FFFFFF" height="146.5527" style="stroke:#181818;stroke-width:1.0;" width="10" x="346" y="222.5293"/><rect fill="#FFFFFF" height="29.3105" style="stroke:#181818;stroke-width:1.0;" width="10" x="810" y="134.5977"/><rect fill="#FFFFFF" height="87.9316" style="stroke:#181818;stroke-width:1.0;" width="10" x="810" y="251.8398"/><line style="stroke:#181818;stroke-width:0.5;stroke-dasharray:5.0,5.0;" x1="32" x2="32" y1="73.9766" y2="387.082"/><line style="stroke:#181818;stroke-width:0.5;stroke-dasharray:5.0,5.0;" x1="351" x2="351" y1="73.9766" y2="387.082"/><line style="stroke:#181818;stroke-width:0.5;stroke-dasharray:5.0,5.0;" x1="815" x2="815" y1="73.9766" y2="387.082"/><rect fill="#E2E2F0" height="30.4883" rx="2.5" ry="2.5" style="stroke:#181818;stroke-width:0.5;" width="54" x="5" y="42.4883"/><text fill="#000000" font-family="sans-serif" font-size="14" lengthAdjust="spacing" textLength="40" x="12" y="63.0234">Client</text><rect fill="#E2E2F0" height="30.4883" rx="2.5" ry="2.5" style="stroke:#181818;stroke-width:0.5;" width="54" x="5" y="386.082"/><text fill="#000000" font-family="sans-serif" font-size="14" lengthAdjust="spacing" textLength="40" x="12" y="406.6172">Client</text><rect fill="#E2E2F0" height="30.4883" rx="2.5" ry="2.5" style="stroke:#181818;stroke-width:0.5;" width="36" x="333" y="42.4883"/><text fill="#000000" font-family="sans-serif" font-size="14" lengthAdjust="spacing" textLength="22" x="340" y="63.0234">API</text><rect fill="#E2E2F0" height="30.4883" rx="2.5" ry="2.5" style="stroke:#181818;stroke-width:0.5;" width="36" x="333" y="386.082"/><text fill="#000000" font-family="sans-serif" font-size="14" lengthAdjust="spacing" textLength="22" x="340" y="406.6172">API</text><rect fill="#E2E2F0" height="30.4883" rx="2.5" ry="2.5" style="stroke:#181818;stroke-width:0.5;" width="78" x="776" y="42.4883"/><text fill="#000000" font-family="sans-serif" font-size="14" lengthAdjust="spacing" textLength="64" x="783" y="63.0234">Coindesk</text><rect fill="#E2E2F0" height="30.4883" rx="2.5" ry="2.5" style="stroke:#181818;stroke-width:0.5;" width="78" x="776" y="386.082"/><text fill="#000000" font-family="sans-serif" font-size="14" lengthAdjust="spacing" textLength="64" x="783" y="406.6172">Coindesk</text><rect fill="#FFFFFF" height="87.9316" style="stroke:#181818;stroke-width:1.0;" width="10" x="346" y="105.2871"/><rect fill="#FFFFFF" height="146.5527" style="stroke:#181818;stroke-width:1.0;" width="10" x="346" y="222.5293"/><rect fill="#FFFFFF" height="29.3105" style="stroke:#181818;stroke-width:1.0;" width="10" x="810" y="134.5977"/><rect fill="#FFFFFF" height="87.9316" style="stroke:#181818;stroke-width:1.0;" width="10" x="810" y="251.8398"/><polygon fill="#181818" points="334,101.2871,344,105.2871,334,109.2871,338,105.2871" style="stroke:#181818;stroke-width:1.0;"/><line style="stroke:#181818;stroke-width:1.0;" x1="32" x2="340" y1="105.2871" y2="105.2871"/><text fill="#000000" font-family="sans-serif" font-size="13" lengthAdjust="spacing" textLength="172" x="39" y="100.5449">GET /supported-currencies</text><polygon fill="#181818" points="798,130.5977,808,134.5977,798,138.5977,802,134.5977" style="stroke:#181818;stroke-width:1.0;"/><line style="stroke:#181818;stroke-width:1.0;" x1="356" x2="804" y1="134.5977" y2="134.5977"/><text fill="#000000" font-family="sans-serif" font-size="13" lengthAdjust="spacing" textLength="363" x="363" y="129.8555">GET api.coindesk.com/v1/bpi/supported-currencies.json</text><polygon fill="#181818" points="367,159.9082,357,163.9082,367,167.9082,363,163.9082" style="stroke:#181818;stroke-width:1.0;"/><line style="stroke:#181818;stroke-width:1.0;stroke-dasharray:2.0,2.0;" x1="361" x2="814" y1="163.9082" y2="163.9082"/><text fill="#000000" font-family="sans-serif" font-size="13" lengthAdjust="spacing" textLength="222" x="373" y="159.166">RESP list of currencies with country</text><polygon fill="#181818" points="43,189.2188,33,193.2188,43,197.2188,39,193.2188" style="stroke:#181818;stroke-width:1.0;"/><line style="stroke:#181818;stroke-width:1.0;stroke-dasharray:2.0,2.0;" x1="37" x2="350" y1="193.2188" y2="193.2188"/><text fill="#000000" font-family="sans-serif" font-size="13" lengthAdjust="spacing" textLength="222" x="49" y="188.4766">RESP list of currencies with country</text><polygon fill="#181818" points="334,218.5293,344,222.5293,334,226.5293,338,222.5293" style="stroke:#181818;stroke-width:1.0;"/><line style="stroke:#181818;stroke-width:1.0;" x1="32" x2="340" y1="222.5293" y2="222.5293"/><text fill="#000000" font-family="sans-serif" font-size="13" lengthAdjust="spacing" textLength="267" x="39" y="217.7871">GET /historical-prices (duration, currency)</text><polygon fill="#181818" points="798,247.8398,808,251.8398,798,255.8398,802,251.8398" style="stroke:#181818;stroke-width:1.0;"/><line style="stroke:#181818;stroke-width:1.0;" x1="356" x2="804" y1="251.8398" y2="251.8398"/><text fill="#000000" font-family="sans-serif" font-size="13" lengthAdjust="spacing" textLength="435" x="363" y="247.0977">GET production.api.coindesk.com/v2/tb/price/values/BTC (duration)</text><polygon fill="#181818" points="367,277.1504,357,281.1504,367,285.1504,363,281.1504" style="stroke:#181818;stroke-width:1.0;"/><line style="stroke:#181818;stroke-width:1.0;stroke-dasharray:2.0,2.0;" x1="361" x2="809" y1="281.1504" y2="281.1504"/><text fill="#000000" font-family="sans-serif" font-size="13" lengthAdjust="spacing" textLength="279" x="373" y="276.4082">RESP list of historical prices in USD currency</text><polygon fill="#181818" points="798,306.4609,808,310.4609,798,314.4609,802,310.4609" style="stroke:#181818;stroke-width:1.0;"/><line style="stroke:#181818;stroke-width:1.0;" x1="356" x2="804" y1="310.4609" y2="310.4609"/><text fill="#000000" font-family="sans-serif" font-size="13" lengthAdjust="spacing" textLength="340" x="363" y="305.7188">GET production.api.coindesk.com/v2/exchange-rates</text><polygon fill="#181818" points="367,335.7715,357,339.7715,367,343.7715,363,339.7715" style="stroke:#181818;stroke-width:1.0;"/><line style="stroke:#181818;stroke-width:1.0;stroke-dasharray:2.0,2.0;" x1="361" x2="814" y1="339.7715" y2="339.7715"/><text fill="#000000" font-family="sans-serif" font-size="13" lengthAdjust="spacing" textLength="269" x="373" y="335.0293">RESP list of currencies with exchange rates</text><polygon fill="#181818" points="43,365.082,33,369.082,43,373.082,39,369.082" style="stroke:#181818;stroke-width:1.0;"/><line style="stroke:#181818;stroke-width:1.0;stroke-dasharray:2.0,2.0;" x1="37" x2="350" y1="369.082" y2="369.082"/><text fill="#000000" font-family="sans-serif" font-size="13" lengthAdjust="spacing" textLength="290" x="49" y="364.3398">RESP list of historical prices in target currency</text><!--SRC=[dP9FJm8n4CNl_HHpbCJIwD4O4mLYl171U2xT0KQMjdQd8D_UxXzSaLK3fpRDlD-yDrCcpX7knq_mwi9gdhijI9ZWUqHh48Qa5q6lXV0wC1dosZ8CSaBB1qz9VrZYo6POh8IeYq7ULJrku74q1LL4xrrWpAI98QHEX8NGXccZkJ8ZH5cTH7jGezIU-gPvIfUrsbofcQTEOF-jSBQbjfPAzAsKtzdFeyaOSYeOt1nQ16o9bs1Sj1ns8iCEM9ElvDK1JqLLQRl7j4mK5yZeNFfq9CX55eDcSlPoZzxr_XvSZVB1PT6Kmlxn2AyLprJLG6rq7h5G3zD1swftpWnRwz1O9mila-6NxTys_8zJ_31BRHSeaxVqPqxUvLuFjVwCbNOcOnqMo6sud_lz1000]--></g></svg>