<?xml version="1.0" encoding="us-ascii" standalone="no"?><svg xmlns="http://www.w3.org/2000/svg" xmlns:xlink="http://www.w3.org/1999/xlink" contentStyleType="text/css" height="306.25px" preserveAspectRatio="none" style="width:550px;height:306px;background:#FFFFFF;" version="1.1" viewBox="0 0 550 306" width="550px" zoomAndPan="magnify"><defs/><g><g id="elem_&lt;b&gt;api&lt;/b&gt;"><ellipse cx="201.2974" cy="30.0656" fill="#F1F1F1" rx="38.938" ry="20.6906" style="stroke:#181818;stroke-width:0.78125;"/><text fill="#000000" font-family="Tahoma" font-size="18.75" font-weight="bold" lengthAdjust="spacing" textLength="29.6875" x="186.4536" y="34.3839">api</text></g><g id="elem_cli-parser"><ellipse cx="470.0413" cy="30.0656" fill="#F1F1F1" rx="70.9788" ry="20.6906" style="stroke:#181818;stroke-width:0.78125;"/><text fill="#000000" font-family="Tahoma" font-size="18.75" lengthAdjust="spacing" textLength="75" x="432.5413" y="34.3839">cli-parser</text></g><g id="elem_currencies-list"><ellipse cx="101.3038" cy="110.3858" fill="#F1F1F1" rx="91.9288" ry="22.1358" style="stroke:#181818;stroke-width:0.78125;"/><text fill="#000000" font-family="Tahoma" font-size="18.75" lengthAdjust="spacing" textLength="114.0625" x="44.2725" y="114.704">currencies-list</text></g><g id="elem_exchange-rates"><ellipse cx="227.8634" cy="193.3727" fill="#F1F1F1" rx="96.1603" ry="22.9821" style="stroke:#181818;stroke-width:0.78125;"/><text fill="#000000" font-family="Tahoma" font-size="18.75" lengthAdjust="spacing" textLength="125" x="165.3634" y="197.6909">exchange-rates</text></g><g id="elem_hbp-extractor"><ellipse cx="302.8668" cy="110.3921" fill="#F1F1F1" rx="91.3356" ry="22.0171" style="stroke:#181818;stroke-width:0.78125;"/><text fill="#000000" font-family="Tahoma" font-size="18.75" lengthAdjust="spacing" textLength="112.5" x="246.6168" y="114.7104">hbp-extractor</text></g><g id="elem_historical-prices"><ellipse cx="440.3569" cy="193.3683" fill="#F1F1F1" rx="98.0131" ry="23.3526" style="stroke:#181818;stroke-width:0.78125;"/><text fill="#000000" font-family="Tahoma" font-size="18.75" lengthAdjust="spacing" textLength="129.6875" x="375.5131" y="197.6865">historical-prices</text></g><g id="elem_http-wrapper"><ellipse cx="227.8555" cy="275.8836" fill="#F1F1F1" rx="89.5743" ry="21.6649" style="stroke:#181818;stroke-width:0.78125;"/><text fill="#000000" font-family="Tahoma" font-size="18.75" lengthAdjust="spacing" textLength="107.8125" x="173.9493" y="280.2018">http-wrapper</text></g><g id="elem_rest-api"><ellipse cx="320.0507" cy="30.0656" fill="#F1F1F1" rx="61.0351" ry="20.6906" style="stroke:#181818;stroke-width:0.78125;"/><text fill="#000000" font-family="Tahoma" font-size="18.75" lengthAdjust="spacing" textLength="60.9375" x="289.5819" y="34.3839">rest-api</text></g><!--link <b>api</b> to cli-parser--><g id="link_&lt;b&gt;api&lt;/b&gt;_cli-parser"><path d="M221.0938,48.6094 C221.0938,59.4531 221.0938,71 221.0938,71 C221.0938,71 468.7344,71 468.7344,71 C468.7344,71 468.7344,70.7656 468.7344,60.8594 " fill="none" id="&lt;b&gt;api&lt;/b&gt;-to-cli-parser" style="stroke:#000000;stroke-width:1.5625;"/><polygon fill="#000000" points="468.7344,51.4844,462.4844,65.5469,468.7344,59.2969,474.9844,65.5469,468.7344,51.4844" style="stroke:#000000;stroke-width:1.5625;"/></g><!--link <b>api</b> to currencies-list--><g id="link_&lt;b&gt;api&lt;/b&gt;_currencies-list"><path d="M177.7969,47.0937 C177.7969,62.2031 177.7969,74.5625 177.7969,88.2187 " fill="none" id="&lt;b&gt;api&lt;/b&gt;-to-currencies-list" style="stroke:#000000;stroke-width:1.5625;"/><polygon fill="#000000" points="177.7969,97.5937,184.0469,83.5312,177.7969,89.7812,171.5469,83.5312,177.7969,97.5937" style="stroke:#000000;stroke-width:1.5625;"/></g><!--link <b>api</b> to hbp-extractor--><g id="link_&lt;b&gt;api&lt;/b&gt;_hbp-extractor"><path d="M230.6719,44.0625 C230.6719,58.7969 230.6719,72.5 230.6719,87.1875 " fill="none" id="&lt;b&gt;api&lt;/b&gt;-to-hbp-extractor" style="stroke:#000000;stroke-width:1.5625;"/><polygon fill="#000000" points="230.6719,96.5625,236.9219,82.5,230.6719,88.75,224.4219,82.5,230.6719,96.5625" style="stroke:#000000;stroke-width:1.5625;"/></g><!--link <b>api</b> to rest-api--><g id="link_&lt;b&gt;api&lt;/b&gt;_rest-api"><path d="M240.8437,30.375 C246.5156,30.375 243.0781,30.375 249.0469,30.375 " fill="none" id="&lt;b&gt;api&lt;/b&gt;-to-rest-api" style="stroke:#000000;stroke-width:1.5625;"/><polygon fill="#000000" points="258.4219,30.375,244.3594,24.125,250.6094,30.375,244.3594,36.625,258.4219,30.375" style="stroke:#000000;stroke-width:1.5625;"/></g><!--link currencies-list to http-wrapper--><g id="link_currencies-list_http-wrapper"><path d="M70.5469,131.5312 C70.5469,176.4219 70.5469,277.25 70.5469,277.25 C70.5469,277.25 93.1875,277.25 128.3438,277.25 " fill="none" id="currencies-list-to-http-wrapper" style="stroke:#000000;stroke-width:0.78125;"/><polygon fill="#000000" points="137.7188,277.25,123.6563,271,129.9063,277.25,123.6563,283.5,137.7188,277.25" style="stroke:#000000;stroke-width:0.78125;"/></g><!--link exchange-rates to http-wrapper--><g id="link_exchange-rates_http-wrapper"><path d="M227.8594,216.8125 C227.8594,228.4375 227.8594,233.0156 227.8594,244.4531 " fill="none" id="exchange-rates-to-http-wrapper" style="stroke:#000000;stroke-width:0.78125;"/><polygon fill="#000000" points="227.8594,253.8281,234.1094,239.7656,227.8594,246.0156,221.6094,239.7656,227.8594,253.8281" style="stroke:#000000;stroke-width:0.78125;"/></g><!--link hbp-extractor to exchange-rates--><g id="link_hbp-extractor_exchange-rates"><path d="M267.7813,131.3281 C267.7813,143.8125 267.7813,150.25 267.7813,162.7812 " fill="none" id="hbp-extractor-to-exchange-rates" style="stroke:#000000;stroke-width:0.78125;"/><polygon fill="#000000" points="267.7813,172.1562,274.0313,158.0937,267.7813,164.3437,261.5313,158.0937,267.7813,172.1562" style="stroke:#000000;stroke-width:0.78125;"/></g><!--link hbp-extractor to historical-prices--><g id="link_hbp-extractor_historical-prices"><path d="M368.2813,126.3906 C368.2813,141.0937 368.2813,153.375 368.2813,168.0469 " fill="none" id="hbp-extractor-to-historical-prices" style="stroke:#000000;stroke-width:0.78125;"/><polygon fill="#000000" points="368.2813,177.4219,374.5313,163.3594,368.2813,169.6094,362.0313,163.3594,368.2813,177.4219" style="stroke:#000000;stroke-width:0.78125;"/></g><!--link historical-prices to http-wrapper--><g id="link_historical-prices_http-wrapper"><path d="M440.3594,217.1875 C440.3594,241.9844 440.3594,277.25 440.3594,277.25 C440.3594,277.25 385.2813,277.25 327.3594,277.25 " fill="none" id="historical-prices-to-http-wrapper" style="stroke:#000000;stroke-width:0.78125;"/><polygon fill="#000000" points="317.9844,277.25,332.0469,283.5,325.7969,277.25,332.0469,271,317.9844,277.25" style="stroke:#000000;stroke-width:0.78125;"/></g><!--SRC=[XP91RzD048Nl_XLpepqOueWYLMeZeKeSkP0RuZ1UJxAhh7TMisCIGFntrXJIjMEb9yjllZVp_EHqS26YO0_U1T8VaO15BLTLCkW9UZn1SxzUmT5rQYlb2ChGiYhtq3aXeuv3fizx0dUKA4ApBaJ1S1Z5zVj2x3cmiS8zWSf0nIHPxFZemXvsw5CvwMY7WzTF7FGpPkCMBVUu37nnFsaMWuVGFR444lXGcgA3vcvLA2Z2noVsBD1wD8VvQ6kTEGHA2LPlxufXp2pkQUlKqqVlzg6deE1ffrNr1lWx-W8U4XbC1Bygo9LAHp9T-tlqZ1LZsFkoXRDstMguZnnoWC9wrXQjpMYiRXxQ3KRtyAxTt5OtnhiwUnF9-3A8K32EKkrTqgpGoTYSXMf1fPG5syQQJYfeb4UBpHoBoxzJ7VFZcL6DzL4mnhzRXPBM-UBjx3ZKN_L_jiVcsmQcOIRa9NeHzJe_ptqrnqlYYpjvzRXj-eMpbXQPQO1dv9Ls_-rPQlX2Mxhv1m00]--></g></svg>